<svg width="48" height="40" viewBox="0 0 48 40" fill="none" xmlns="http://www.w3.org/2000/svg">
<path fill-rule="evenodd" clip-rule="evenodd" d="M41 32H7C6.447 32 6 31.552 6 31V9C6 8.448 6.447 8 7 8H10V10H8V30H40V26H42V31C42 31.552 41.553 32 41 32Z" fill="#1B1B1B"/>
<path fill-rule="evenodd" clip-rule="evenodd" d="M47 24H13C12.447 24 12 23.552 12 23V1C12 0.448 12.447 0 13 0H47C47.553 0 48 0.448 48 1V23C48 23.552 47.553 24 47 24ZM14 22H46V2H14V22Z" fill="#1B1B1B"/>
<path fill-rule="evenodd" clip-rule="evenodd" d="M35 40H1C0.447 40 0 39.552 0 39V17C0 16.448 0.447 16 1 16H4V18H2V38H34V34H36V39C36 39.552 35.553 40 35 40Z" fill="#1B1B1B"/>
</svg>
