<svg width="48" height="48" viewBox="0 0 48 48" fill="none" xmlns="http://www.w3.org/2000/svg">
<path fill-rule="evenodd" clip-rule="evenodd" d="M10.1965 48.0003C8.88196 48.0003 7.60412 47.7422 6.39757 47.2313C6.06596 47.0908 5.82724 46.796 5.75811 46.4438C5.68898 46.0917 5.80024 45.7277 6.05408 45.4738L9.87247 41.6565V38.6007H6.81776L2.99936 42.418C2.74552 42.6719 2.38366 42.7853 2.02937 42.714C1.67723 42.646 1.38127 42.4062 1.24193 42.0745C-0.310277 38.4063 0.50417 34.2206 3.31585 31.409C5.1489 29.5748 7.58792 28.5649 10.1825 28.5649C11.2486 28.5649 12.291 28.7345 13.289 29.0715L29.0628 13.2978C27.8832 9.80558 28.7625 5.96018 31.3992 3.32349C33.2333 1.49044 35.6723 0.480484 38.2669 0.480484C39.5814 0.480484 40.8593 0.738644 42.0658 1.24956C42.3974 1.38999 42.6362 1.68487 42.7053 2.03701C42.7744 2.38914 42.6632 2.75316 42.4093 3.007L38.5909 6.82648V9.88227H41.6467L45.464 6.06388C45.7179 5.81004 46.0776 5.69662 46.434 5.76791C46.7862 5.83596 47.0821 6.07576 47.2215 6.40737C48.7737 10.0756 47.9592 14.2613 45.1475 17.073C43.3145 18.906 40.8755 19.916 38.2809 19.916C37.2148 19.916 36.1724 19.7464 35.1743 19.4094L19.4006 35.1831C20.5802 38.6753 19.6999 42.5207 17.0632 45.1573C15.2301 46.9904 12.7911 48.0003 10.1965 48.0003ZM8.86036 45.7234C9.29782 45.8011 9.74393 45.84 10.1965 45.84C12.2143 45.84 14.11 45.0547 15.5358 43.63C17.7231 41.4437 18.3561 38.1859 17.1485 35.3332C16.9767 34.9281 17.0686 34.4594 17.3796 34.1483L34.1395 17.3884C34.4517 17.0773 34.9216 16.9844 35.3245 17.1572C36.2632 17.5536 37.258 17.7556 38.2809 17.7556C40.2987 17.7556 42.1944 16.9703 43.6202 15.5445C45.4014 13.7633 46.1521 11.2714 45.7157 8.86583L42.8565 11.725C42.6534 11.9281 42.3791 12.0415 42.0928 12.0415H37.5108C36.9145 12.0415 36.4306 11.5587 36.4306 10.9614V6.37929C36.4306 6.09196 36.544 5.8176 36.7471 5.61561L39.6052 2.75856C39.1667 2.68079 38.7205 2.6419 38.268 2.6419C36.2502 2.6419 34.3534 3.42718 32.9276 4.85193C30.7413 7.03927 30.1084 10.296 31.316 13.1487C31.4877 13.5538 31.3959 14.0226 31.0848 14.3336L14.3238 31.0935C14.0128 31.4046 13.5429 31.4965 13.1389 31.3247C12.2002 30.9283 11.2054 30.7263 10.1825 30.7263C8.16473 30.7263 6.26795 31.5116 4.84321 32.9374C3.06201 34.7186 2.31129 37.2105 2.74768 39.6161L5.60689 36.7569C5.80996 36.5538 6.08432 36.4404 6.37057 36.4404H10.9537C11.55 36.4404 12.0339 36.9232 12.0339 37.5206V42.1037C12.0339 42.391 11.9205 42.6654 11.7174 42.8674L8.86036 45.7234Z" fill="#1B1B1B"/>
<path fill-rule="evenodd" clip-rule="evenodd" d="M43.6785 48.0003C42.5249 48.0003 41.4394 47.551 40.6227 46.7344L30.6938 36.8044C30.2715 36.3821 30.2715 35.6994 30.6938 35.277L35.2759 30.695C35.6983 30.2726 36.3809 30.2726 36.8033 30.695L46.7333 40.625C47.5499 41.4405 47.9992 42.5261 47.9992 43.6797C47.9992 44.8344 47.5488 45.9199 46.7333 46.7355C45.9177 47.551 44.8332 48.0003 43.6785 48.0003ZM32.986 36.0407L42.1512 45.207C42.9667 46.0226 44.3893 46.0236 45.2059 45.207C45.6142 44.7987 45.8389 44.2565 45.8389 43.6797C45.8389 43.1029 45.6142 42.5595 45.207 42.1523L36.0407 32.986L32.986 36.0407Z" fill="#1B1B1B"/>
<path fill-rule="evenodd" clip-rule="evenodd" d="M9.95372 8.42668L22.279 20.7519L20.7514 22.2795L8.42615 9.95426L9.95372 8.42668Z" fill="#1B1B1B"/>
<path fill-rule="evenodd" clip-rule="evenodd" d="M29.1654 39.413C28.8889 39.413 28.6124 39.3072 28.4017 39.0965C27.9794 38.6742 27.9794 37.9915 28.4017 37.5692L37.567 28.4039C37.9893 27.9816 38.672 27.9816 39.0943 28.4039C39.5167 28.8263 39.5167 29.5089 39.0943 29.9313L29.9291 39.0965C29.7184 39.3072 29.4419 39.413 29.1654 39.413Z" fill="#1B1B1B"/>
<path fill-rule="evenodd" clip-rule="evenodd" d="M7.66242 11.7985C7.3859 11.7985 7.10938 11.6926 6.89875 11.482L0.78823 5.37149C0.585158 5.1695 0.471741 4.89514 0.471741 4.60781C0.471741 4.32049 0.585158 4.04612 0.78823 3.84413L3.84295 0.789416C4.26529 0.36707 4.94796 0.36707 5.37031 0.789416L11.4808 6.89993C11.6839 7.103 11.7973 7.37629 11.7973 7.66361C11.7973 7.95093 11.6839 8.2253 11.4808 8.42729L8.4261 11.482C8.21547 11.6937 7.93895 11.7985 7.66242 11.7985ZM3.07927 4.60781L7.66242 9.19097L9.18978 7.66361L4.60663 3.08045L3.07927 4.60781Z" fill="#1B1B1B"/>
<path fill-rule="evenodd" clip-rule="evenodd" d="M26.8633 25.3346L34.7921 33.2635L33.2646 34.791L25.3357 26.8622L26.8633 25.3346Z" fill="#1B1B1B"/>
</svg>
